<mxfile host="app.diagrams.net" modified="2020-11-10T02:13:04.839Z" agent="5.0 (Windows NT 10.0; Win64; x64) AppleWebKit/537.36 (KHTML, like Gecko) Chrome/86.0.4240.183 Safari/537.36" etag="0F9EJUk-ybPJOJteRk3W" version="13.9.2" type="github">
  <diagram id="C5RBs43oDa-KdzZeNtuy" name="Page-1">
    <mxGraphModel dx="868" dy="450" grid="1" gridSize="10" guides="1" tooltips="1" connect="1" arrows="1" fold="1" page="1" pageScale="1" pageWidth="827" pageHeight="1169" math="0" shadow="0">
      <root>
        <mxCell id="WIyWlLk6GJQsqaUBKTNV-0" />
        <mxCell id="WIyWlLk6GJQsqaUBKTNV-1" parent="WIyWlLk6GJQsqaUBKTNV-0" />
        <mxCell id="jw7vcbh3QwB2ga_-RajW-6" style="edgeStyle=orthogonalEdgeStyle;rounded=0;orthogonalLoop=1;jettySize=auto;html=1;exitX=0.5;exitY=1;exitDx=0;exitDy=0;entryX=0.5;entryY=0;entryDx=0;entryDy=0;" edge="1" parent="WIyWlLk6GJQsqaUBKTNV-1" source="jw7vcbh3QwB2ga_-RajW-3" target="jw7vcbh3QwB2ga_-RajW-5">
          <mxGeometry relative="1" as="geometry" />
        </mxCell>
        <mxCell id="jw7vcbh3QwB2ga_-RajW-3" value="start" style="rounded=1;whiteSpace=wrap;html=1;" vertex="1" parent="WIyWlLk6GJQsqaUBKTNV-1">
          <mxGeometry x="350" y="100" width="120" height="60" as="geometry" />
        </mxCell>
        <mxCell id="jw7vcbh3QwB2ga_-RajW-8" style="edgeStyle=orthogonalEdgeStyle;rounded=0;orthogonalLoop=1;jettySize=auto;html=1;exitX=0.5;exitY=1;exitDx=0;exitDy=0;entryX=0.5;entryY=0;entryDx=0;entryDy=0;" edge="1" parent="WIyWlLk6GJQsqaUBKTNV-1" source="jw7vcbh3QwB2ga_-RajW-5" target="jw7vcbh3QwB2ga_-RajW-7">
          <mxGeometry relative="1" as="geometry" />
        </mxCell>
        <mxCell id="jw7vcbh3QwB2ga_-RajW-5" value="int angka" style="shape=internalStorage;whiteSpace=wrap;html=1;backgroundOutline=1;" vertex="1" parent="WIyWlLk6GJQsqaUBKTNV-1">
          <mxGeometry x="350" y="200" width="120" height="50" as="geometry" />
        </mxCell>
        <mxCell id="jw7vcbh3QwB2ga_-RajW-19" style="edgeStyle=orthogonalEdgeStyle;rounded=0;orthogonalLoop=1;jettySize=auto;html=1;exitX=0.5;exitY=1;exitDx=0;exitDy=0;entryX=0.5;entryY=0;entryDx=0;entryDy=0;" edge="1" parent="WIyWlLk6GJQsqaUBKTNV-1" source="jw7vcbh3QwB2ga_-RajW-7" target="jw7vcbh3QwB2ga_-RajW-9">
          <mxGeometry relative="1" as="geometry" />
        </mxCell>
        <mxCell id="jw7vcbh3QwB2ga_-RajW-7" value="masukkan angka" style="shape=parallelogram;perimeter=parallelogramPerimeter;whiteSpace=wrap;html=1;fixedSize=1;" vertex="1" parent="WIyWlLk6GJQsqaUBKTNV-1">
          <mxGeometry x="320" y="290" width="180" height="60" as="geometry" />
        </mxCell>
        <mxCell id="jw7vcbh3QwB2ga_-RajW-13" style="edgeStyle=orthogonalEdgeStyle;rounded=0;orthogonalLoop=1;jettySize=auto;html=1;exitX=1;exitY=0.5;exitDx=0;exitDy=0;entryX=0.5;entryY=0;entryDx=0;entryDy=0;" edge="1" parent="WIyWlLk6GJQsqaUBKTNV-1" source="jw7vcbh3QwB2ga_-RajW-9" target="jw7vcbh3QwB2ga_-RajW-11">
          <mxGeometry relative="1" as="geometry" />
        </mxCell>
        <mxCell id="jw7vcbh3QwB2ga_-RajW-15" style="edgeStyle=orthogonalEdgeStyle;rounded=0;orthogonalLoop=1;jettySize=auto;html=1;exitX=0;exitY=0.5;exitDx=0;exitDy=0;entryX=0.5;entryY=0;entryDx=0;entryDy=0;" edge="1" parent="WIyWlLk6GJQsqaUBKTNV-1" source="jw7vcbh3QwB2ga_-RajW-9" target="jw7vcbh3QwB2ga_-RajW-12">
          <mxGeometry relative="1" as="geometry" />
        </mxCell>
        <mxCell id="jw7vcbh3QwB2ga_-RajW-9" value="angka % 2 == 0" style="rhombus;whiteSpace=wrap;html=1;" vertex="1" parent="WIyWlLk6GJQsqaUBKTNV-1">
          <mxGeometry x="330" y="400" width="160" height="70" as="geometry" />
        </mxCell>
        <mxCell id="jw7vcbh3QwB2ga_-RajW-21" style="edgeStyle=orthogonalEdgeStyle;rounded=0;orthogonalLoop=1;jettySize=auto;html=1;exitX=0.5;exitY=1;exitDx=0;exitDy=0;entryX=1;entryY=0.5;entryDx=0;entryDy=0;" edge="1" parent="WIyWlLk6GJQsqaUBKTNV-1" source="jw7vcbh3QwB2ga_-RajW-11" target="jw7vcbh3QwB2ga_-RajW-20">
          <mxGeometry relative="1" as="geometry" />
        </mxCell>
        <mxCell id="jw7vcbh3QwB2ga_-RajW-11" value="&lt;span&gt;output angka &quot; Agka Ganjil&quot;&lt;/span&gt;" style="shape=parallelogram;perimeter=parallelogramPerimeter;whiteSpace=wrap;html=1;fixedSize=1;" vertex="1" parent="WIyWlLk6GJQsqaUBKTNV-1">
          <mxGeometry x="500" y="480" width="177" height="40" as="geometry" />
        </mxCell>
        <mxCell id="jw7vcbh3QwB2ga_-RajW-22" style="edgeStyle=orthogonalEdgeStyle;rounded=0;orthogonalLoop=1;jettySize=auto;html=1;exitX=0.5;exitY=1;exitDx=0;exitDy=0;entryX=0;entryY=0.5;entryDx=0;entryDy=0;" edge="1" parent="WIyWlLk6GJQsqaUBKTNV-1" source="jw7vcbh3QwB2ga_-RajW-12" target="jw7vcbh3QwB2ga_-RajW-20">
          <mxGeometry relative="1" as="geometry" />
        </mxCell>
        <mxCell id="jw7vcbh3QwB2ga_-RajW-12" value="output angka &quot; Agka Genap&quot;" style="shape=parallelogram;perimeter=parallelogramPerimeter;whiteSpace=wrap;html=1;fixedSize=1;" vertex="1" parent="WIyWlLk6GJQsqaUBKTNV-1">
          <mxGeometry x="160" y="480" width="180" height="40" as="geometry" />
        </mxCell>
        <mxCell id="jw7vcbh3QwB2ga_-RajW-16" value="false" style="text;html=1;align=center;verticalAlign=middle;resizable=0;points=[];autosize=1;" vertex="1" parent="WIyWlLk6GJQsqaUBKTNV-1">
          <mxGeometry x="510" y="410" width="40" height="20" as="geometry" />
        </mxCell>
        <mxCell id="jw7vcbh3QwB2ga_-RajW-17" value="true" style="text;html=1;align=center;verticalAlign=middle;resizable=0;points=[];autosize=1;" vertex="1" parent="WIyWlLk6GJQsqaUBKTNV-1">
          <mxGeometry x="250" y="410" width="40" height="20" as="geometry" />
        </mxCell>
        <mxCell id="jw7vcbh3QwB2ga_-RajW-26" style="edgeStyle=orthogonalEdgeStyle;rounded=0;orthogonalLoop=1;jettySize=auto;html=1;exitX=0.5;exitY=1;exitDx=0;exitDy=0;entryX=0.5;entryY=0;entryDx=0;entryDy=0;" edge="1" parent="WIyWlLk6GJQsqaUBKTNV-1" source="jw7vcbh3QwB2ga_-RajW-20" target="jw7vcbh3QwB2ga_-RajW-25">
          <mxGeometry relative="1" as="geometry" />
        </mxCell>
        <mxCell id="jw7vcbh3QwB2ga_-RajW-20" value="" style="ellipse;whiteSpace=wrap;html=1;" vertex="1" parent="WIyWlLk6GJQsqaUBKTNV-1">
          <mxGeometry x="400.63" y="575" width="18.75" height="20" as="geometry" />
        </mxCell>
        <mxCell id="jw7vcbh3QwB2ga_-RajW-25" value="end" style="rounded=1;whiteSpace=wrap;html=1;" vertex="1" parent="WIyWlLk6GJQsqaUBKTNV-1">
          <mxGeometry x="350" y="620" width="120" height="50" as="geometry" />
        </mxCell>
      </root>
    </mxGraphModel>
  </diagram>
</mxfile>
